# Created by Kenney (www.kenney.nl)

mtllib TestTerrain.mtl

g Hilly_Terrain_Hill_Transition_Gentle_Sharp_Flush_Base

v -1.3 0.7 -2
v -0.4000001 0.35 -1.075
v 0.4999998 0.7 -1.5
v -0.4 1.05 -2.225
v 0.4999998 1.05 -2
v -1.3 1.05 -2.75
v -2.2 1.05 -3.275
v -3.1 0.7 -2.5
v -2.2 0.35 -1.425
v -3.1 1.05 -3.5
v -2.2 1.2 -4.2
v -3.1 1.2 -4.5
v -1.3 1.2 -4.5
v -1.3 1.2 -3.5
v 0.5 1.2 -3.5
v -0.4 1.2 -2.8
v 0.5 1.2 -2.5
v -3.1 0.35 -1.5
v -3.1 0.2 -0.5000001
v -2.2 0.2 -0.5
v -0.4000001 0.2 -0.4999999
v -1.3 0.35 -1.25
v 0.4999998 0.35 -0.9999998
v 0.4999998 0.2 -0.4999998

vn -0.6156253 0.8026859 0.4885914
vn -0.4037301 0.8651358 0.4485888
vn -0.2774168 0.8439927 0.5137346
vn -0.5118401 0.7718223 0.5687111
vn -0.4497699 0.793245 0.5552714
vn -0.7304795 0.828208 0.3864971
vn -0.1900338 0.9300594 0.3519143
vn -0.344979 0.9035165 0.3833099
vn -0.4328212 0.907845 0.3435088
vn -0.2871061 0.9342341 0.3190067
vn -0.2646753 0.9335989 0.3267596
vn -0.119889 0.9867404 0.148011
vn -0.1293226 0.9845546 0.1596575
vn -0.172085 0.9825841 0.159338
vn -0.1595769 0.9850425 0.1477563
vn 0 1 0
vn -0.08908534 0.9427017 0.3299456
vn -1.296833E-08 0.9889364 0.1483404
vn -1.399387E-08 0.9871055 0.1600712
vn -0.04320678 0.9868211 0.1600251
vn -2.206743E-08 0.9676173 0.2524219
vn -0.1232631 0.9782788 0.1956557
vn -0.07751199 0.9569377 0.2870813
vn -2.512075E-08 0.9578264 0.2873479
vn -0.1584088 0.9638631 0.2514425
vn -0.04004202 0.9886917 0.1483037
vn -0.3630422 0.9604293 0.1920858
vn -0.4611547 0.9353228 0.2439972
vn -0.5997544 0.912325 0.2379978
vn -0.2983498 0.9734517 0.157857
vn -0.4765758 0.9455869 0.1891173
vn -0.3936166 0.9632152 0.156197
vn -0.3058238 0.9439005 0.2831701
vn -0.2695418 0.9567071 0.2495757
vn -0.2031553 0.9614346 0.250809
vn -0.23083 0.9499178 0.2849753
vn -0.1542652 0.8162177 0.5713525
vn -0.2635467 0.8964175 0.4183281

vt 0 1
vt 0 0
vt 1 0
vt 1 1
vt 1 0.2205
vt 0.3103448 0
vt 1 0.3285
vt 0.8235295 1
vt 0.4117647 0.5
vt 0.225 1
vt 0 0.09930196
vt 0.3 0.5
vt 0.7 0.5
vt 0 0.96325
vt 0.9302326 1
vt 0.5 0
vt 0.5 1
vt 0.85 1
vt 1 0.06846764
vt 0 0.5571668
vt 0.6216216 0
vt 0.8108108 0.5

usemtl Grass

f 22/22/38 2/4/38 1/20/38
f 1/20/38 9/21/38 22/22/38
f 2/18/37 23/19/37 3/2/37
f 17/2/33 4/4/35 5/1/36
f 17/2/33 16/3/34 4/4/35
f 6/17/27 16/2/29 14/16/31
f 14/16/31 11/3/32 7/4/30
f 7/4/30 6/17/27 14/16/31
f 6/17/27 4/1/28 16/2/29
f 19/4/18 9/2/20 18/3/26
f 22/16/22 9/3/20 20/4/19
f 21/1/21 2/2/25 22/16/22
f 23/2/23 2/3/25 21/4/21
f 23/2/23 21/4/21 24/1/24
f 20/4/19 21/1/21 22/16/22
f 19/4/18 20/1/19 9/2/20
f 9/3/17 8/14/17 18/15/17
f 16/13/16 17/3/16 15/2/16
f 15/2/16 14/1/16 16/13/16
f 11/12/16 14/3/16 13/2/16
f 13/2/16 12/1/16 11/12/16
f 10/4/12 11/2/14 12/3/15
f 10/4/12 7/1/13 11/2/14
f 8/1/7 1/3/9 7/4/10
f 7/10/10 10/11/11 8/3/7
f 8/1/7 9/2/8 1/3/9
f 6/9/6 7/2/6 1/7/6
f 1/7/6 4/8/6 6/9/6
f 3/5/5 5/6/5 4/1/4
f 1/1/1 3/3/3 4/4/4
f 1/1/1 2/2/2 3/3/3

g Hilly_Terrain_Hill_Transition_Gentle_Sharp_Centered

v 1 0.35 -0.925
v 0.5 0.7 -1.5
v 0.5 0.35 -1
v 0.4999999 0.2 -0.5000001
v 0.9999999 0.2 -0.35
v 2 0.35 -0.5749999
v 2.5 0.35 -0.4999999
v 2 0.2 0.35
v 2.5 0.2 0.5000001
v 1.5 0.7 -1.5
v 2.5 0.7 -1.5
v 2 1.05 -2.425
v 1 1.05 -2.075
v 2 1.2 -3.35
v 1 1.2 -2.65
v 2.5 1.05 -2.5
v 2.5 1.2 -3.5
v 0.5000001 1.2 -2.5
v 0.5000001 1.05 -2
v 0.5000002 1.2 -3.5

vn -0.08570291 0.8162177 0.5713525
vn -0.08588586 0.9542871 0.2862861
vn -0.0755104 0.9648548 0.2517012
vn -0.03783619 0.9669244 0.2522412
vn -0.05593721 0.98556 0.1598205
vn -0.174 0.952857 0.2485714
vn -0.02224557 0.9886917 0.1483037
vn -0.04796609 0.9859693 0.1598869
vn -0.04445814 0.9879586 0.1481938
vn -0.111353 0.9809666 0.1590757
vn -0.04306223 0.9569377 0.2870813
vn -0.1464149 0.8964175 0.4183281
vn -3.093823E-08 0.9352863 0.3538921
vn 0.1464148 0.8964175 0.4183281
vn 0.1113529 0.9809666 0.1590757
vn 0.174 0.952857 0.2485714
vn 0.05593718 0.98556 0.1598205
vn 0.04796606 0.9859693 0.1598869
vn 0.02224555 0.9886917 0.1483037
vn 0.04445812 0.9879586 0.1481938
vn 0.08800486 0.9638631 0.2514425
vn 0.07551035 0.9648548 0.2517012
vn 0.08588582 0.9542871 0.2862861
vn 0.04306218 0.9569377 0.2870813
vn 0.08570281 0.8162177 0.5713525
vn 0.04949181 0.9427017 0.3299456
vn -0.04949187 0.9427017 0.3299456
vn -4.545521E-08 0.8541986 0.5199469

vt 0 0.9265
vt 0.8695652 1
vt 1 0.5
vt 0 0.5
vt 1 0.4428334
vt 0.3783784 1
vt 0.85 0.75
vt 0.15 0.25
vt 1 0.9265
vt 0.1304348 1
vt 0.07500001 1
vt 0 0.03544731
vt 0.925 0
vt 1 0.9645528

usemtl Grass

f 37/26/66 26/17/66 34/16/66
f 26/17/66 25/25/66 34/16/66
f 35/1/65 30/35/65 31/36/65
f 36/33/64 35/3/64 40/34/64
f 26/31/63 37/2/63 43/32/63
f 44/1/16 39/29/16 38/30/16
f 41/2/16 44/1/16 38/30/16
f 44/1/16 42/4/16 39/29/16
f 43/1/62 37/4/59 42/2/61
f 37/4/59 39/3/60 42/2/61
f 39/2/54 37/1/59 36/4/55
f 41/3/58 38/2/56 40/4/57
f 38/2/56 36/1/55 40/4/57
f 38/3/53 39/2/54 36/4/55
f 34/27/52 36/2/52 37/28/52
f 34/16/51 35/17/51 36/26/51
f 34/16/51 30/25/51 35/17/51
f 25/21/50 30/4/50 34/20/50
f 28/1/40 25/3/42 27/2/49
f 30/3/43 29/1/44 32/4/48
f 31/3/45 32/1/46 33/4/47
f 31/3/45 30/2/43 32/1/46
f 30/3/43 25/2/42 29/1/44
f 28/1/40 29/4/41 25/3/42
f 25/3/39 26/23/39 27/24/39

g Hilly_Terrain_Hill_Transition_Gentle_Sharp_Flush_Crest

v -4.1 0.35 -2.25
v -4.6 0.35 -2.775
v -4.6 0.2 -2.2
v -3.6 0.35 -1.725
v -3.6 0.2 -0.7999998
v -3.1 0.35 -1.5
v -3.1 0.2 -0.4999999
v -4.1 0.7 -3
v -3.6 1.05 -3.575
v -4.1 1.05 -3.75
v -4.6 1.05 -3.925
v -5.1 0.7 -3.5
v -5.1 0.35 -3
v -5.1 1.05 -4
v -4.6 1.2 -4.5
v -3.6 1.2 -4.5
v -5.1 1.2 -4.5
v -5.1 0.2 -2.5

vn -0.2016901 0.9604293 0.1920858
vn -0.2561971 0.9353228 0.2439972
vn -0.3331969 0.912325 0.2379978
vn -0.1657499 0.9734517 0.157857
vn -0.2186759 0.9632152 0.156197
vn -0.06660499 0.9867404 0.148011
vn -0.07184589 0.9845546 0.1596575
vn -0.0956028 0.9825841 0.159338
vn -0.08865385 0.9850425 0.1477563
vn -0.1470418 0.9335989 0.3267596
vn -0.2404563 0.907845 0.3435088
vn -0.191655 0.9035165 0.3833099
vn -0.1541204 0.8439927 0.5137346
vn -0.2843556 0.7718223 0.5687112
vn -0.3420141 0.8026859 0.4885914
vn -0.2498722 0.793245 0.5552714
vn -0.2242945 0.8651358 0.4485888
vn -0.06847952 0.9782788 0.1956558
vn -0.405822 0.828208 0.3864971
vn -0.1699021 0.9439005 0.2831701
vn -0.1497455 0.9567071 0.2495757
vn -0.1128641 0.9614346 0.250809
vn -0.1282389 0.9499178 0.2849753

vt 1 0.9006981
vt 0.775 0
vt 0.1891892 0.5
vt 0 0.2205
vt 0.6896552 0
vt 0 0.06846764
vt 0.15 1
vt 0.06976745 1
vt 1 0.96325
vt 0 0.6715
vt 0.1764706 0
vt 0.5882353 0.5

usemtl Grass

f 62/1/86 46/3/88 57/2/89
f 62/1/86 47/4/87 46/3/88
f 45/48/85 48/4/85 52/46/85
f 52/46/85 46/47/85 45/48/85
f 10/44/65 53/2/65 8/45/65
f 58/1/49 59/3/21 61/2/24
f 59/2/21 55/1/42 54/17/84
f 54/17/84 53/4/43 60/3/19
f 12/3/18 53/1/43 10/4/45
f 12/3/18 60/2/19 53/1/43
f 60/3/19 59/2/21 54/17/84
f 58/1/49 55/4/42 59/3/21
f 58/42/39 56/3/39 55/43/39
f 56/1/79 52/3/81 55/4/83
f 46/4/80 56/40/82 57/41/82
f 56/1/79 46/2/80 52/3/81
f 54/39/50 55/2/50 52/27/50
f 52/27/50 53/28/50 54/39/50
f 52/1/77 48/2/76 8/3/76
f 52/1/77 8/3/76 53/4/78
f 50/37/76 8/1/76 48/38/76
f 50/3/72 49/1/74 51/4/75
f 50/3/72 48/2/73 49/1/74
f 48/3/70 45/16/67 47/1/69
f 48/3/70 47/1/69 49/4/71
f 45/16/67 46/2/68 47/1/69

g Hilly_Terrain_Hill_Transition_Gentle_Sharp_Flush_Base

v 3.5 0.7 -1
v 4 0.35 -0.07499992
v 4.5 0.7 -0.4999999
v 4 1.05 -1.225
v 4.5 1.05 -0.9999999
v 3.5 1.05 -1.75
v 3 1.05 -2.275
v 2.5 0.7 -1.5
v 3 0.35 -0.425
v 2.5 1.05 -2.5
v 3 1.2 -3.2
v 2.5 1.2 -3.5
v 3.5 1.2 -3.5
v 3.5 1.2 -2.5
v 4.5 1.2 -2.5
v 4 1.2 -1.8
v 4.5 1.2 -1.5
v 2.5 0.35 -0.5
v 2.5 0.2 0.4999999
v 3 0.2 0.5
v 4 0.2 0.5000001
v 3.5 0.35 -0.25
v 4.5 0.35 1.311342E-07
v 4.5 0.2 0.5000001

vn -0.1055743 0.9300594 0.3519143
vn -0.1595034 0.9342341 0.3190067
vn -0.02400378 0.9868211 0.1600251
vn -0.08800491 0.9638631 0.2514425
vn -0.2647644 0.9455869 0.1891174


usemtl Grass

f 84/22/50 64/4/50 63/20/50
f 63/20/50 71/21/50 84/22/50
f 64/18/39 85/19/39 65/2/39
f 79/2/86 66/4/88 67/1/89
f 79/2/86 78/3/87 66/4/88
f 68/17/67 78/2/69 76/16/94
f 76/16/94 73/3/71 69/4/70
f 69/4/70 68/17/67 76/16/94
f 68/17/67 66/1/68 78/2/69
f 81/4/18 71/2/92 80/3/45
f 84/16/84 71/3/92 82/4/19
f 83/1/21 64/2/93 84/16/84
f 85/2/49 64/3/93 83/4/21
f 85/2/49 83/4/21 86/1/24
f 82/4/19 83/1/21 84/16/84
f 81/4/18 82/1/19 71/2/92
f 71/3/65 70/14/65 80/15/65
f 78/13/16 79/3/16 77/2/16
f 77/2/16 76/1/16 78/13/16
f 73/12/16 76/3/16 75/2/16
f 75/2/16 74/1/16 73/12/16
f 72/4/72 73/2/74 74/3/75
f 72/4/72 69/1/73 73/2/74
f 70/1/90 63/3/77 69/4/91
f 69/10/91 72/11/76 70/3/90
f 70/1/90 71/2/78 63/3/77
f 68/9/85 69/2/85 63/7/85
f 63/7/85 66/8/85 68/9/85
f 65/5/82 67/6/82 66/1/80
f 63/1/81 65/3/79 66/4/80
f 63/1/81 64/2/83 65/3/79

g Hilly_Terrain_Hill_Corner_Outer_4x4

v 6.522542 1.05 -2.030536
v 6.877642 1.05 -2.727457
v 6.402113 1.2 -2.881966
v 6.118034 1.2 -2.324429
v 7.331559 0.35 -1.442751
v 7.828698 0.35 -2.41844
v 7.736068 0.2 -1.148859
v 8.304226 0.2 -2.263932
v 6.851141 0.2 -0.2639315
v 6.557249 0.35 -0.6684401
v 5.736068 0.2 0.3042264
v 5.581559 0.35 -0.1713023
v 4.5 0.2 0.5000005
v 4.5 0.35 4.768372E-07
v 4.5 1.05 -0.9999998
v 5.272542 1.05 -1.122358
v 5.118034 1.2 -1.597887
v 4.5 1.2 -1.5
v 5.969463 1.05 -1.477457
v 5.67557 1.2 -1.881966
v 8 0.35 -3.5
v 8.5 0.2 -3.5
v 7 1.05 -3.5
v 6.5 1.2 -3.5
v 4.5 1.2 -3.5

vn 0.2589523 0.9568359 0.1319428
vn 0.5152071 0.8158734 0.2625113
vn 0.2055056 0.9568359 0.2055057
vn 0.1319427 0.9568359 0.2589523
vn 0.04546435 0.9568359 0.2870508
vn 0.09045511 0.8158734 0.5711116
vn 0.2625111 0.8158734 0.5152071
vn 0.2870508 0.9568359 0.04546441
vn 0.4088707 0.8158734 0.4088708
vn 0.5711116 0.8158734 0.09045523

vt 0.9510565 0.309017
vt 0.309017 0.9510565
vt 0.5877852 0.8090171
vt 0.8090171 0.5877852

usemtl Grass

f 110/2/102 88/4/102 109/1/102
f 110/2/102 89/3/102 88/4/102
f 90/52/16 89/49/16 111/2/16
f 106/51/16 90/52/16 111/2/16
f 103/50/16 106/51/16 111/2/16
f 111/2/16 104/1/16 103/50/16
f 89/49/16 110/3/16 111/2/16
f 105/4/97 90/2/97 106/3/97
f 105/4/97 87/1/97 90/2/97
f 88/3/104 92/4/104 107/1/104
f 109/2/104 88/3/104 107/1/104
f 91/1/103 87/2/103 105/3/103
f 96/4/103 91/1/103 105/3/103
f 92/3/102 94/4/102 108/1/102
f 107/2/102 92/3/102 108/1/102
f 96/1/101 105/2/101 102/3/101
f 98/4/101 96/1/101 102/3/101
f 102/4/98 106/2/98 103/3/98
f 102/4/98 105/1/98 106/2/98
f 101/4/99 103/2/99 104/3/99
f 101/4/99 102/1/99 103/2/99
f 98/1/100 102/2/100 101/3/100
f 100/4/100 98/1/100 101/3/100
f 97/1/99 98/2/99 100/3/99
f 99/4/99 97/1/99 100/3/99
f 95/1/98 96/2/98 98/3/98
f 97/4/98 95/1/98 98/3/98
f 93/1/97 91/2/97 96/3/97
f 95/4/97 93/1/97 96/3/97
f 94/1/95 92/2/95 91/3/95
f 93/4/95 94/1/95 91/3/95
f 92/1/96 88/2/96 87/3/96
f 91/4/96 92/1/96 87/3/96
f 87/4/95 89/2/95 90/3/95
f 87/4/95 88/1/95 89/2/95

g Hilly_Terrain_Hill_Side_Sharp

v 7 1.05 -3.5
v 8 0.35 -3.5
v 7 1.05 -4.5
v 8 0.35 -4.5
v 6.5 1.2 -3.5
v 6.5 1.2 -4.5
v 8.5 0.2 -3.5
v 8.5 0.2 -4.5

vn 0.5734625 0.8192319 5.960464E-08
vn 0.2873479 0.9578264 2.980232E-08


usemtl Grass

f 118/2/106 119/3/106 115/4/106
f 113/1/106 118/2/106 115/4/106
f 112/2/106 114/3/106 117/4/106
f 116/1/106 112/2/106 117/4/106
f 113/2/105 115/3/105 114/4/105
f 112/1/105 113/2/105 114/4/105

g Hilly_Terrain_Grass_Floor

v 6.500007 1.2 -3.499999
v -1.500002 1.2 -3.5
v 6.500007 1.2 -4.5
v -1.500002 1.2 -4.500001


vt -6.500004 -3.5
vt 1.5 -3.5
vt -6.500005 -4.5
vt 1.5 -4.5

usemtl Grass

f 122/55/16 121/54/16 120/53/16
f 122/55/16 123/56/16 121/54/16

g Hilly_Terrain_Grass_Floor

v 4.5 1.2 -2.5
v 3.5 1.2 -2.5
v 4.5 1.2 -3.5
v 3.5 1.2 -3.5


vt -4.5 -2.5
vt -3.5 -2.5
vt -4.5 -3.5
vt -3.5 -3.5

usemtl Grass

f 126/59/16 125/58/16 124/57/16
f 126/59/16 127/60/16 125/58/16

g Hilly_Terrain_Grass_Floor

v -5 0.2 -5
v -5 0.2 5
v 9 0.2 5
v 9 0.2 -5



usemtl Grass

f 128/4/16 130/2/16 131/1/16
f 128/4/16 129/3/16 130/2/16

